<svg width="94" height="14" viewBox="0 0 94 14" fill="none" xmlns="http://www.w3.org/2000/svg">
<path d="M16.2075 0H10.5848L8.13379 2.48697H15.3983L16.7508 3.85927L8.30506 12.4288L9.73434 13.879C9.81361 13.9566 9.91948 14 10.0296 14C10.1398 14 10.2457 13.9566 10.325 13.879L19.8811 4.1649C19.9576 4.08447 20.0003 3.97705 20.0003 3.86527C20.0003 3.75349 19.9576 3.64607 19.8811 3.56564L16.4909 0.125859C16.4144 0.050695 16.3138 0.00600532 16.2075 0Z" fill="black"/>
<path d="M12.1264 4.97391H4.38938L3.28494 3.85329L7.08258 0H3.79286C3.68035 0.00160719 3.57266 0.0466143 3.49165 0.125859L0.119256 3.56564C0.0427509 3.64607 0 3.75349 0 3.86527C0 3.97705 0.0427509 4.08447 0.119256 4.1649L6.5392 10.6789L8.25789 8.88112L12.1264 4.97391Z" fill="black"/>
<path d="M32.3342 2.09652C31.5694 1.71332 30.7292 1.52079 29.8805 1.5342H26V10.4244H29.8805C30.7292 10.4378 31.5694 10.2453 32.3342 9.86211C33.0152 9.51545 33.5898 8.97797 33.9934 8.31011C34.3864 7.5973 34.5932 6.78984 34.5932 5.96806C34.5932 5.14628 34.3864 4.33883 33.9934 3.62602C33.5868 2.96646 33.0124 2.43703 32.3342 2.09652ZM32.2423 7.45539C32.0156 7.87157 31.6751 8.20823 31.264 8.42258C30.8037 8.65747 30.2957 8.77322 29.7832 8.75997H27.9889V3.22115H29.7832C30.2957 3.2079 30.8037 3.32365 31.264 3.55854C31.6736 3.7725 32.0137 4.10684 32.2423 4.5201C32.4696 4.97316 32.5883 5.47667 32.5883 5.98774C32.5883 6.49882 32.4696 7.00233 32.2423 7.45539ZM41.1706 3.95216C40.5922 3.645 39.95 3.49051 39.3006 3.50231C38.6583 3.49097 38.0232 3.64553 37.4523 3.95216C36.9258 4.23717 36.4847 4.66701 36.1768 5.19488C35.8635 5.74603 35.7027 6.37653 35.712 7.01679C35.6987 7.64561 35.8546 8.26578 36.1621 8.80731C36.4696 9.34883 36.9165 9.79014 37.4523 10.0814C38.0218 10.3925 38.6575 10.5491 39.3006 10.5369C39.9507 10.5498 40.5936 10.3932 41.1706 10.0814C41.7074 9.79091 42.1554 9.34993 42.4639 8.80835C42.7724 8.26677 42.9291 7.64619 42.9163 7.01679C42.9257 6.37653 42.7648 5.74603 42.4515 5.19488C42.1437 4.6621 41.7005 4.22815 41.1706 3.94091V3.95216ZM40.7599 8.03458C40.6229 8.30602 40.4173 8.53347 40.1654 8.69249C39.9005 8.84307 39.6024 8.9187 39.3006 8.91179C39.0078 8.91613 38.719 8.84051 38.4629 8.69249C38.2059 8.53647 37.9962 8.30852 37.8576 8.03458C37.7 7.72092 37.6219 7.37062 37.6306 7.01679C37.6203 6.66459 37.6986 6.3157 37.8576 6.00461C37.9968 5.73543 38.2067 5.51307 38.4629 5.36357C38.7242 5.21593 39.0168 5.13859 39.3142 5.13859C39.6115 5.13859 39.9041 5.21593 40.1654 5.36357C40.4172 5.51523 40.6232 5.73731 40.7599 6.00461C40.9189 6.3157 40.9972 6.66459 40.9869 7.01679C40.9888 7.36829 40.9052 7.71458 40.7437 8.02333L40.7599 8.03458ZM46.0996 6.00461C45.9406 6.3157 45.8623 6.66459 45.8726 7.01679C45.8624 7.37256 45.9406 7.72506 46.0996 8.04021C46.2449 8.31512 46.4623 8.54135 46.7265 8.69249C46.9923 8.84045 47.2898 8.9159 47.5913 8.91179C47.8822 8.91463 48.169 8.83908 48.4236 8.69249C48.6962 8.51706 48.9184 8.26842 49.0667 7.97272L50.5313 8.81058C50.305 9.3503 49.9136 9.79707 49.418 10.0814C48.861 10.3949 48.2351 10.5519 47.6021 10.5369C46.9475 10.5487 46.3001 10.3943 45.7159 10.087C45.1752 9.79844 44.7234 9.35758 44.4118 8.81474C44.1003 8.27189 43.9417 7.6489 43.954 7.01679C43.9431 6.37913 44.1061 5.75131 44.4242 5.20613C44.7391 4.6768 45.1853 4.24557 45.7159 3.95778C46.2988 3.64618 46.9468 3.4897 47.6021 3.50231C48.2344 3.48816 48.8596 3.64305 49.418 3.95216C49.9174 4.23413 50.3099 4.6842 50.5313 5.22862L49.0667 6.03273C48.9167 5.74274 48.6946 5.49998 48.4236 5.32984C48.1706 5.17828 47.8831 5.10058 47.5913 5.10491C47.2891 5.09973 46.9908 5.17729 46.7265 5.32984C46.4599 5.48271 46.242 5.71334 46.0996 5.99337V6.00461ZM56.0008 6.49383L58.9787 10.4301H56.6709L54.6064 7.75905L53.6822 8.69811V10.4301H51.7798V1H53.6822V6.32514L56.4656 3.59228H58.7355L56.0008 6.49383ZM64.9021 3.60352H66.718L63.7509 10.8574C63.5859 11.3319 63.3407 11.7718 63.0267 12.1564C62.7809 12.4464 62.4712 12.6702 62.1241 12.8086C61.7777 12.939 61.4116 13.0037 61.0432 12.9998C60.7022 12.9979 60.3634 12.9429 60.038 12.8368C59.7368 12.7417 59.456 12.587 59.2111 12.3813L59.9083 10.9586C60.0535 11.1007 60.2244 11.2116 60.4109 11.2848C60.5965 11.3623 60.7946 11.4023 60.9946 11.4029C61.219 11.4137 61.4403 11.3442 61.6215 11.206C61.8127 11.0246 61.9607 10.7993 62.0539 10.5481V10.4919L59.2273 3.60352H61.1783L63.0267 8.23701L64.9021 3.60352ZM73.5494 8.75997H77.8082V10.4469H71.5767V1.5342H73.5656L73.5494 8.75997ZM81.7049 3.50231C81.1849 3.50128 80.6671 3.57122 80.1646 3.71036C79.7013 3.83249 79.2634 4.04216 78.8729 4.32891L79.5431 5.71221C79.8073 5.50593 80.1034 5.34809 80.4186 5.24549C80.7503 5.13384 81.0968 5.07692 81.4455 5.07679C81.8564 5.04268 82.2649 5.16896 82.5913 5.43105C82.7181 5.55844 82.8171 5.7128 82.8814 5.88358C82.9458 6.05437 82.974 6.23758 82.9642 6.42073H81.4617C80.911 6.40312 80.3618 6.48883 79.8403 6.67377C79.4822 6.79375 79.1715 7.03237 78.9559 7.3532C78.7402 7.67403 78.6314 8.05948 78.6459 8.45069C78.6403 8.82445 78.744 9.19115 78.9432 9.50222C79.1549 9.82757 79.4484 10.0863 79.7917 10.2501C80.2031 10.4398 80.6498 10.5319 81.0996 10.52C81.5933 10.5407 82.0831 10.4201 82.5156 10.1714C82.756 10.0206 82.9566 9.80999 83.0993 9.55846V10.4188H84.8828V6.52194C84.9185 6.09821 84.8622 5.67155 84.7182 5.27348C84.5741 4.87541 84.3459 4.51609 84.0505 4.22207C83.3836 3.69524 82.5568 3.43575 81.7211 3.49106L81.7049 3.50231ZM82.4183 8.97364C82.1529 9.12911 81.8527 9.20866 81.5482 9.2042C81.272 9.22059 80.9984 9.14151 80.7699 8.97927C80.6784 8.9111 80.6044 8.82057 80.5545 8.71564C80.5045 8.61072 80.4802 8.49463 80.4835 8.37759C80.4821 8.27052 80.5037 8.16449 80.5467 8.06721C80.5897 7.96993 80.6531 7.88386 80.7321 7.81527C81.0052 7.62951 81.3319 7.54803 81.6563 7.58472H82.9642V8.282C82.8715 8.5674 82.6836 8.8088 82.4345 8.9624L82.4183 8.97364ZM93.5517 5.16677C93.2751 4.65492 92.8696 4.23114 92.3789 3.94091C91.8657 3.6429 91.2858 3.49158 90.6981 3.50231C90.1943 3.49035 89.697 3.62262 89.2605 3.88468C89.0588 4.00425 88.8764 4.15605 88.7201 4.33453V1.01125H86.8446V10.4357H88.666V9.64842C88.8284 9.8545 89.0241 10.0296 89.2443 10.1658C89.6949 10.4205 90.2016 10.5484 90.7143 10.5369C91.302 10.5476 91.8819 10.3963 92.3952 10.0983C92.8858 9.80805 93.2913 9.38428 93.5679 8.87243C93.8519 8.29949 94 7.66422 94 7.0196C94 6.37498 93.8519 5.73971 93.5679 5.16677H93.5517ZM91.8277 8.03458C91.6932 8.30791 91.4871 8.53602 91.2332 8.69249C90.9707 8.83629 90.6785 8.91145 90.3819 8.91145C90.0853 8.91145 89.7932 8.83629 89.5307 8.69249C89.2737 8.53647 89.064 8.30852 88.9254 8.03458C88.7678 7.72092 88.6896 7.37062 88.6984 7.01679C88.6881 6.66459 88.7664 6.3157 88.9254 6.00461C89.0646 5.73543 89.2745 5.51307 89.5307 5.36357C89.792 5.21593 90.0846 5.13859 90.3819 5.13859C90.6793 5.13859 90.9719 5.21593 91.2332 5.36357C91.4863 5.51351 91.6927 5.73603 91.8277 6.00461C91.9867 6.3157 92.065 6.66459 92.0547 7.01679C92.0666 7.36538 91.9941 7.7115 91.8439 8.02333L91.8277 8.03458Z" fill="black"/>
</svg>
