<svg width="94" height="14" viewBox="0 0 94 14" fill="none" xmlns="http://www.w3.org/2000/svg">
<path d="M16.2075 0H10.5848L8.13379 2.48697H15.3983L16.7508 3.85927L8.30506 12.4288L9.73434 13.879C9.81361 13.9566 9.91948 14 10.0296 14C10.1398 14 10.2457 13.9566 10.325 13.879L19.8811 4.1649C19.9576 4.08447 20.0003 3.97705 20.0003 3.86527C20.0003 3.75349 19.9576 3.64607 19.8811 3.56564L16.4909 0.125859C16.4144 0.050695 16.3138 0.00600532 16.2075 0Z" fill="#242424"/>
<path d="M12.1264 4.97391H4.38938L3.28494 3.85329L7.08258 0H3.79286C3.68035 0.00160719 3.57266 0.0466143 3.49165 0.125859L0.119256 3.56564C0.0427509 3.64607 0 3.75349 0 3.86527C0 3.97705 0.0427509 4.08447 0.119256 4.1649L6.5392 10.6789L8.25789 8.88112L12.1264 4.97391Z" fill="#242424"/>
<path d="M31.4071 2.08833C30.6237 1.70256 29.7603 1.50929 28.888 1.52443H25V10.4396H28.888C29.7603 10.4547 30.6237 10.2615 31.4071 9.8757C32.1049 9.52965 32.6891 8.98945 33.0902 8.31934C33.4913 7.60324 33.702 6.79533 33.702 5.97355C33.702 5.15176 33.4913 4.34385 33.0902 3.62775C32.6851 2.9651 32.1016 2.43136 31.4071 2.08833ZM31.6596 7.59756C31.3921 8.0513 31.0033 8.42053 30.5375 8.66331C30.001 8.93026 29.4079 9.06188 28.8095 9.04677H26.6719V2.93417H28.8095C29.4079 2.91906 30.001 3.05066 30.5375 3.31761C31.001 3.55854 31.3893 3.92345 31.6596 4.37209C31.9267 4.86723 32.0666 5.42157 32.0666 5.98482C32.0666 6.54807 31.9267 7.10242 31.6596 7.59756ZM40.4792 4.01119C39.9055 3.70141 39.2619 3.54601 38.6109 3.56008C37.9652 3.54585 37.327 3.70134 36.7595 4.01119C36.2348 4.29676 35.7967 4.71956 35.4915 5.23485C35.1828 5.78461 35.0205 6.4052 35.0205 7.03649C35.0205 7.66778 35.1828 8.28837 35.4915 8.83813C35.7991 9.36172 36.2434 9.79072 36.7763 10.0787C37.3425 10.3866 37.9784 10.542 38.6221 10.5298C39.2711 10.5419 39.9124 10.3866 40.4848 10.0787C41.0174 9.79297 41.4618 9.36581 41.7696 8.84376C42.0716 8.29077 42.2299 7.67014 42.2299 7.03931C42.2299 6.40848 42.0716 5.78784 41.7696 5.23485C41.4582 4.71655 41.0121 4.29347 40.4792 4.01119ZM40.3613 8.17273C40.2023 8.4891 39.9546 8.75177 39.6488 8.92834C39.3308 9.10298 38.9733 9.19233 38.6109 9.18775C38.2558 9.191 37.9059 9.10161 37.5954 8.92834C37.289 8.74898 37.0383 8.48732 36.8716 8.17273C36.6913 7.82487 36.6007 7.43711 36.608 7.04494C36.5985 6.65253 36.6892 6.26423 36.8716 5.91715C37.0389 5.60735 37.2898 5.3513 37.5954 5.17845C37.91 5.00471 38.2631 4.91361 38.6221 4.91361C38.9811 4.91361 39.3342 5.00471 39.6488 5.17845C39.9536 5.34865 40.2015 5.60566 40.3613 5.91715C40.5437 6.26423 40.6345 6.65253 40.625 7.04494C40.6323 7.43711 40.5417 7.82487 40.3613 8.17273ZM45.2985 5.91715C45.1161 6.26423 45.0253 6.65253 45.0348 7.04494C45.0273 7.43714 45.118 7.82495 45.2985 8.17273C45.4663 8.4888 45.7216 8.74929 46.0335 8.92271C46.3578 9.09688 46.7205 9.18609 47.0882 9.1821C47.4172 9.184 47.7414 9.10254 48.0308 8.94526C48.3357 8.77577 48.5911 8.52884 48.7714 8.22912L49.9776 8.93963C49.7334 9.43932 49.3414 9.85094 48.8555 10.1182C48.3216 10.4005 47.7251 10.5421 47.1219 10.5298C46.4619 10.5439 45.8092 10.3887 45.2256 10.0787C44.6886 9.79488 44.2402 9.36752 43.9296 8.84376C43.6209 8.29297 43.4587 7.67148 43.4587 7.03931C43.4587 6.40714 43.6209 5.78564 43.9296 5.23485C44.2421 4.71408 44.6902 4.28902 45.2256 4.00556C45.8092 3.6956 46.4619 3.54033 47.1219 3.55444C47.7244 3.54282 48.3202 3.68236 48.8555 3.96044C49.3453 4.22517 49.7384 4.63999 49.9776 5.14462L48.7714 5.85513C48.5876 5.56116 48.3328 5.31868 48.0308 5.15027C47.7414 4.99299 47.4172 4.91153 47.0882 4.91342C46.7198 4.90866 46.3564 4.99998 46.0335 5.17845C45.7214 5.34905 45.4659 5.60783 45.2985 5.9228V5.91715ZM54.2359 7.5299L53.0689 8.65768V10.4565H51.498V1H53.0689V6.69533L56.351 3.64466H58.2473L55.4141 6.49796L58.5167 10.4452H56.6035L54.2359 7.5299ZM64.5366 3.63903H66.0571L62.8872 11.0035C62.7174 11.4349 62.4807 11.8364 62.1859 12.1933C61.952 12.4686 61.6557 12.6833 61.3219 12.8192C60.9921 12.944 60.6419 13.0052 60.2895 12.9997C59.9499 13.0014 59.6124 12.9461 59.2909 12.8361C58.9909 12.7428 58.7138 12.5872 58.4774 12.3794L59.1001 11.2177C59.2679 11.3585 59.4574 11.4709 59.6612 11.5505C59.8577 11.6361 60.0697 11.6802 60.2839 11.6801C60.5362 11.6922 60.7846 11.6143 60.9852 11.4602C61.2044 11.2556 61.3734 11.0028 61.479 10.7215L61.5968 10.4565L58.6401 3.63903H60.2727L62.4215 8.68587L64.5366 3.63903ZM72.8344 9.04113H77.4743V10.4452H71.185V1.53571H72.8344V9.04113ZM81.4633 3.54317C80.9359 3.53957 80.4106 3.61173 79.9036 3.75745C79.4345 3.88779 78.9933 4.10379 78.602 4.39465L79.2191 5.52244C79.5001 5.30322 79.8172 5.13526 80.156 5.02621C80.5184 4.9083 80.8972 4.84929 81.2781 4.8514C81.7397 4.81507 82.1981 4.95389 82.5629 5.24049C82.7086 5.37974 82.8221 5.54929 82.8958 5.73727C82.9694 5.92525 83.0013 6.12713 82.9893 6.3288V6.4303H81.2276C80.6659 6.41023 80.1057 6.50025 79.5782 6.69533C79.2034 6.85456 78.8916 7.13417 78.6917 7.49042C78.5082 7.80279 78.4132 8.15961 78.4168 8.52234C78.4131 8.89592 78.5227 9.26179 78.731 9.57119C78.9506 9.89215 79.256 10.1443 79.6118 10.2986C80.0313 10.4802 80.4849 10.5687 80.9415 10.558C81.4586 10.5794 81.9725 10.4667 82.4339 10.2309C82.6891 10.0872 82.9065 9.88421 83.0678 9.63885V10.4734H84.5658V6.48669C84.5966 6.08508 84.5415 5.68151 84.404 5.30313C84.2666 4.92475 84.0501 4.58035 83.7691 4.29314C83.1198 3.76407 82.2979 3.49674 81.4633 3.54317ZM82.2936 9.09188C81.9762 9.27465 81.6158 9.36815 81.2501 9.36255C80.9134 9.38231 80.5792 9.29339 80.2963 9.10879C80.1884 9.0329 80.1007 8.93147 80.041 8.81346C79.9813 8.69544 79.9515 8.56449 79.9541 8.43213C79.9506 8.30861 79.9745 8.18585 80.024 8.07273C80.0734 7.95961 80.1473 7.85895 80.2402 7.77801C80.5594 7.56564 80.9424 7.47191 81.323 7.51298H82.9725V8.30243C82.8458 8.64206 82.6059 8.92703 82.2936 9.10879V9.09188ZM93.5481 5.23485C93.257 4.7241 92.8345 4.30145 92.325 4.01119C91.7842 3.71856 91.1775 3.57097 90.5633 3.58264C90.0368 3.57451 89.5171 3.70268 89.0541 3.95481C88.8031 4.10352 88.5792 4.29422 88.3921 4.51871V1.03948H86.8212V10.4903H88.3304V9.61067C88.5229 9.85057 88.7589 10.0515 89.0261 10.2027C89.4994 10.4544 90.028 10.5824 90.5633 10.5749C91.1775 10.5866 91.7842 10.439 92.325 10.1464C92.833 9.85654 93.2551 9.43617 93.5481 8.92834C93.8449 8.36151 94 7.7306 94 7.09006C94 6.44952 93.8449 5.8186 93.5481 5.25176V5.23485ZM92.1174 8.19529C91.955 8.50927 91.7081 8.77108 91.4049 8.9509C91.0902 9.12118 90.7384 9.21031 90.381 9.21031C90.0236 9.21031 89.6718 9.12118 89.3571 8.9509C89.0507 8.77154 88.8 8.50988 88.6334 8.19529C88.453 7.84743 88.3624 7.45967 88.3697 7.0675C88.3602 6.67509 88.451 6.28679 88.6334 5.93971C88.8006 5.62991 89.0515 5.37386 89.3571 5.20101C89.6707 5.02725 90.023 4.93612 90.381 4.93612C90.7391 4.93612 91.0913 5.02725 91.4049 5.20101C91.7073 5.37431 91.9545 5.63052 92.1174 5.93971C92.3035 6.28562 92.3963 6.6744 92.3867 7.0675C92.3912 7.45285 92.2986 7.83305 92.1174 8.17273V8.19529Z" fill="#242424"/>
</svg>
