<svg version="1.2" xmlns="http://www.w3.org/2000/svg" viewBox="0 0 240 90" width="240" height="90">
	<title>logo</title>
	<style>
		.s0 { fill: #000000 } 
	</style>
	<path id="&lt;Path&gt;" fill-rule="evenodd" class="s0" d="m117.5 16.5v8.5h13.3v3.9h-13.3v11.8h-4.4v-28.1h19.9v3.9zm36.3 20.3v3.9h-17.2v-28.1h4.4v24.2zm30.9 3.9h-4.8l-2.5-6.5h-12.6l-2.5 6.5h-4.8l11.4-28.1h4.5l9.6 23.9zm-8.9-10.4l-4.7-12.2-4.8 12.2zm32.3 2.1q0 4.1-3.2 6.4c-2 1.4-4.8 2.1-8.3 2.1q-2.2 0-4.2-0.4-1.9-0.4-3.7-1.1-0.5-0.2-1-0.5v-5l0.5 0.3c1.1 0.9 2.4 1.6 3.8 2.1q2.1 0.7 4.6 0.7 3.5 0 5.4-1.2 1.7-1.2 1.7-3.2c0-1-0.2-1.6-0.7-2.1q-0.9-0.8-2.4-1.2-1.6-0.4-3.4-0.7-1.8-0.3-3.5-0.7-1.9-0.4-3.4-1.1-1.6-0.8-2.6-2.2-1.1-1.5-1.1-3.8 0-4.1 3-6.4c2-1.4 4.7-2.1 8.2-2.1q2.4 0 4.8 0.7 1.3 0.4 2.7 1.1v4.6l-0.1 0.1-0.6-0.3q-1.8-1.2-3.5-1.8-1.7-0.5-3.3-0.5-3.4 0-5.2 1.2-1.6 1.2-1.6 3.3c0 0.9 0.2 1.5 0.8 1.9q1 0.8 2.6 1.2 1.8 0.4 3.7 0.8 1.8 0.3 3.4 0.7 1.8 0.5 3.2 1.3 1.5 0.8 2.5 2.2 0.9 1.4 0.9 3.6zm26.1-19.9v28.1h-4.3v-11.8h-13.5v11.8h-4.4v-28.1h4.4v12.2h13.5v-12.2zm-99.3 47.6v7.5q0 3.4-1.3 5.7c-0.9 1.5-2.3 2.7-4 3.5-1.8 0.7-4 1.1-6.5 1.1h-10v-28.1h10c3.9 0 6.8 0.8 8.8 2.5 2 1.8 3 4.4 3 7.8zm-4.3-0.2c0-2.1-0.6-3.6-1.8-4.7q-1.8-1.5-5.6-1.5h-5.8v20.3h5.8q3.8 0 5.6-1.6c1.2-1 1.8-2.5 1.8-4.7zm30.1 0.2v7.5q0 3.3-1.3 5.7-1.3 2.4-3.8 3.7c-1.6 0.8-3.6 1.2-5.9 1.2-2.3 0-4.2-0.4-5.9-1.2q-2.5-1.3-3.8-3.7c-0.9-1.6-1.3-3.5-1.3-5.7v-7.5q0-3.3 1.3-5.7 1.3-2.4 3.8-3.6 2.5-1.3 5.9-1.3 3.5 0 5.9 1.3 2.5 1.2 3.8 3.6 1.3 2.4 1.3 5.7zm-4.3-0.1c0-2.2-0.6-3.7-1.7-4.9q-1.8-1.6-5-1.6c-2.1 0-3.8 0.5-4.9 1.6-1.2 1.2-1.7 2.7-1.7 4.9v7.8c0 2.1 0.5 3.6 1.7 4.8 1.1 1.1 2.8 1.7 4.9 1.7q3.2 0 5-1.7c1.1-1.2 1.7-2.7 1.7-4.8zm12.5 0.2v7.3c0 2.1 0.6 3.7 1.8 4.9 1.2 1.3 2.7 1.9 4.7 1.9q2.1 0 4-1.2c1.2-0.8 2.1-1.9 2.5-3.4l0.2-0.5h4.3l-0.2 0.9q-0.5 2.4-2.1 4.3-1.5 1.8-3.7 2.8-2.3 1-5 1-3.2 0-5.7-1.3-2.5-1.4-3.8-3.8-1.4-2.4-1.4-5.6v-7.3q0-3.2 1.4-5.6 1.3-2.4 3.8-3.7 2.5-1.4 5.7-1.4 2.7 0 5 1 2.2 1.1 3.8 2.9 1.5 1.8 2 4.3l0.2 0.9h-4.3l-0.2-0.6q-0.4-1.3-1.4-2.4-1-1-2.3-1.6-1.4-0.5-2.8-0.5c-2 0-3.5 0.6-4.7 1.8-1.2 1.2-1.8 2.8-1.8 4.9zm46 17.7h-5.3l-8.8-13.5-6.1 6.7v6.8h-4.3v-28.1h4.3v15.6l13.5-15.6h5.7l-10.1 11.2zm-138.6-12h-0.8v-2zm-27.6 11.7c-2.4 0-4.7-0.8-6.5-2.6l-33.6-33.6c-1.7-1.7-2.7-4-2.7-6.5 0-2.5 1-4.8 2.7-6.5l15.9-15.8c1-1.1 2.4-1.7 3.9-1.7h40.5c1.5 0 2.9 0.6 4 1.7l15.8 15.8c1.8 1.7 2.7 4 2.7 6.5 0 2.5-0.9 4.8-2.7 6.5l-33.5 33.6c-1.8 1.8-4.2 2.6-6.5 2.6zm-20.3-62.7c-0.4 0-0.8 0.2-1.1 0.5l-15.8 15.8c-1 1-1.6 2.3-1.6 3.7 0 1.4 0.6 2.7 1.6 3.7l33.5 33.5c2 2.1 5.3 2.1 7.4 0l33.5-33.5c1-1 1.5-2.3 1.5-3.7 0-1.4-0.5-2.7-1.5-3.7l-15.8-15.8c-0.3-0.3-0.7-0.5-1.2-0.5zm31.1 23.6l-16 20.1c-0.5 0.5-1.4 0.1-1.2-0.6l3.4-13.7c0.1-0.5-0.2-0.9-0.7-0.9h-6.6c-0.6 0-0.9-0.6-0.5-1.1l16-20c0.5-0.6 1.4-0.1 1.2 0.6l-3.4 13.7c-0.1 0.4 0.2 0.8 0.6 0.8h6.7c0.5 0 0.8 0.7 0.5 1.1z"/>
</svg>